{"scene":0,"asset":{"generator":"ImageToStl.com","version":"2.0"},"scenes":[{"name":"Scene","nodes":[0]}],"nodes":[{"name":"Node0","children":[1,2,3,4,5,6,7,8,9,10,11,12,13,14,15,16]},{"name":"Node1","mesh":0},{"name":"Node2","mesh":1},{"name":"Node3","mesh":2},{"name":"Node4","mesh":3},{"name":"Node5","mesh":4},{"name":"Node6","mesh":5},{"name":"Node7","mesh":6},{"name":"Node8","mesh":7},{"name":"Node9","mesh":8},{"name":"Node10","mesh":9},{"name":"Node11","mesh":10},{"name":"Node12","mesh":11},{"name":"Node13","mesh":12},{"name":"Node14","mesh":13},{"name":"Node15","mesh":14},{"name":"Node16","mesh":15}],"materials":[{"name":"glass_window","pbrMetallicRoughness":{"baseColorFactor":[0.297307,0.655212,0.8,1.0],"metallicFactor":0.5,"roughnessFactor":0.75},"emissiveFactor":[0.0,0.0,0.0],"doubleSided":true},{"name":"metal_dark","pbrMetallicRoughness":{"baseColorFactor":[0.110688,0.110688,0.110688,1.0],"metallicFactor":0.5,"roughnessFactor":0.75},"emissiveFactor":[0.0,0.0,0.0],"doubleSided":true},{"name":"plaster_white","pbrMetallicRoughness":{"baseColorFactor":[0.8,0.8,0.8,1.0],"metallicFactor":0.5,"roughnessFactor":0.75},"emissiveFactor":[0.0,0.0,0.0],"doubleSided":true},{"name":"plate_grey","pbrMetallicRoughness":{"baseColorFactor":[0.2019,0.2019,0.2019,1.0],"metallicFactor":0.5,"roughnessFactor":0.75},"emissiveFactor":[0.0,0.0,0.0],"doubleSided":true},{"name":"metal_grey","pbrMetallicRoughness":{"baseColorFactor":[0.190177,0.190177,0.190177,1.0],"metallicFactor":0.5,"roughnessFactor":0.75},"emissiveFactor":[0.0,0.0,0.0],"doubleSided":true},{"name":"mirror_lamp","pbrMetallicRoughness":{"baseColorFactor":[0.8,0.8,0.8,1.0],"metallicFactor":0.5,"roughnessFactor":0.75},"emissiveFactor":[0.0,0.0,0.0],"doubleSided":true},{"name":"marble_grey","pbrMetallicRoughness":{"baseColorFactor":[0.367236,0.367236,0.367236,1.0],"metallicFactor":0.5,"roughnessFactor":0.75},"emissiveFactor":[0.0,0.0,0.0],"doubleSided":true},{"name":"wood_light","pbrMetallicRoughness":{"baseColorFactor":[0.8,0.594399,0.266667,1.0],"metallicFactor":0.5,"roughnessFactor":0.75},"emissiveFactor":[0.0,0.0,0.0],"doubleSided":true},{"name":"foundation_mosaic","pbrMetallicRoughness":{"baseColorFactor":[0.27383,0.242849,0.149908,1.0],"metallicFactor":0.5,"roughnessFactor":0.75},"emissiveFactor":[0.0,0.0,0.0],"doubleSided":true},{"name":"plaster_grey","pbrMetallicRoughness":{"baseColorFactor":[0.420025,0.420025,0.420025,1.0],"metallicFactor":0.5,"roughnessFactor":0.75},"emissiveFactor":[0.0,0.0,0.0],"doubleSided":true},{"name":"wood_balls","pbrMetallicRoughness":{"baseColorFactor":[0.486898,0.413487,0.209819,1.0],"metallicFactor":0.5,"roughnessFactor":0.75},"emissiveFactor":[0.0,0.0,0.0],"doubleSided":true}],"meshes":[{"name":"Mesh0","primitives":[{"indices":3,"material":0,"attributes":{"POSITION":0,"NORMAL":1,"TEXCOORD_0":2}},{"indices":4,"material":1,"attributes":{"POSITION":0,"NORMAL":1,"TEXCOORD_0":2}}]},{"name":"Mesh0","primitives":[{"indices":8,"material":1,"attributes":{"POSITION":5,"NORMAL":6,"TEXCOORD_0":7}}]},{"name":"Mesh0","primitives":[{"indices":12,"material":1,"attributes":{"POSITION":9,"NORMAL":10,"TEXCOORD_0":11}},{"indices":13,"material":2,"attributes":{"POSITION":9,"NORMAL":10,"TEXCOORD_0":11}}]},{"name":"Mesh0","primitives":[{"indices":17,"material":3,"attributes":{"POSITION":14,"NORMAL":15,"TEXCOORD_0":16}}]},{"name":"Mesh0","primitives":[{"indices":21,"material":4,"attributes":{"POSITION":18,"NORMAL":19,"TEXCOORD_0":20}},{"indices":22,"material":5,"attributes":{"POSITION":18,"NORMAL":19,"TEXCOORD_0":20}}]},{"name":"Mesh0","primitives":[{"indices":26,"material":6,"attributes":{"POSITION":23,"NORMAL":24,"TEXCOORD_0":25}}]},{"name":"Mesh0","primitives":[{"indices":30,"material":7,"attributes":{"POSITION":27,"NORMAL":28,"TEXCOORD_0":29}}]},{"name":"Mesh0","primitives":[{"indices":34,"material":0,"attributes":{"POSITION":31,"NORMAL":32,"TEXCOORD_0":33}},{"indices":35,"material":4,"attributes":{"POSITION":31,"NORMAL":32,"TEXCOORD_0":33}},{"indices":36,"material":7,"attributes":{"POSITION":31,"NORMAL":32,"TEXCOORD_0":33}}]},{"name":"Mesh0","primitives":[{"indices":40,"material":0,"attributes":{"POSITION":37,"NORMAL":38,"TEXCOORD_0":39}},{"indices":41,"material":4,"attributes":{"POSITION":37,"NORMAL":38,"TEXCOORD_0":39}},{"indices":42,"material":7,"attributes":{"POSITION":37,"NORMAL":38,"TEXCOORD_0":39}}]},{"name":"Mesh0","primitives":[{"indices":46,"material":1,"attributes":{"POSITION":43,"NORMAL":44,"TEXCOORD_0":45}}]},{"name":"Mesh0","primitives":[{"indices":50,"material":1,"attributes":{"POSITION":47,"NORMAL":48,"TEXCOORD_0":49}},{"indices":51,"material":2,"attributes":{"POSITION":47,"NORMAL":48,"TEXCOORD_0":49}},{"indices":52,"material":8,"attributes":{"POSITION":47,"NORMAL":48,"TEXCOORD_0":49}},{"indices":53,"material":9,"attributes":{"POSITION":47,"NORMAL":48,"TEXCOORD_0":49}}]},{"name":"Mesh0","primitives":[{"indices":57,"material":4,"attributes":{"POSITION":54,"NORMAL":55,"TEXCOORD_0":56}}]},{"name":"Mesh0","primitives":[{"indices":61,"material":7,"attributes":{"POSITION":58,"NORMAL":59,"TEXCOORD_0":60}}]},{"name":"Mesh0","primitives":[{"indices":65,"material":3,"attributes":{"POSITION":62,"NORMAL":63,"TEXCOORD_0":64}},{"indices":66,"material":8,"attributes":{"POSITION":62,"NORMAL":63,"TEXCOORD_0":64}}]},{"name":"Mesh0","primitives":[{"indices":70,"material":3,"attributes":{"POSITION":67,"NORMAL":68,"TEXCOORD_0":69}},{"indices":71,"material":8,"attributes":{"POSITION":67,"NORMAL":68,"TEXCOORD_0":69}}]},{"name":"Mesh0","primitives":[{"indices":75,"material":2,"attributes":{"POSITION":72,"NORMAL":73,"TEXCOORD_0":74}},{"indices":76,"material":10,"attributes":{"POSITION":72,"NORMAL":73,"TEXCOORD_0":74}}]}],"accessors":[{"bufferView":0,"componentType":5126,"count":132,"type":"VEC3","min":[7.080761,4.86567,7.644831],"max":[7.851678,5.5995045,8.030609]},{"bufferView":1,"componentType":5126,"count":132,"type":"VEC3"},{"bufferView":2,"componentType":5126,"count":132,"type":"VEC2"},{"bufferView":3,"componentType":5123,"count":18,"type":"SCALAR"},{"bufferView":4,"componentType":5123,"count":576,"type":"SCALAR"},{"bufferView":5,"componentType":5126,"count":64,"type":"VEC3","min":[-0.7940335,-0.8094983,3.0457556],"max":[12.45299,11.617201,8.346936]},{"bufferView":6,"componentType":5126,"count":64,"type":"VEC3"},{"bufferView":7,"componentType":5126,"count":64,"type":"VEC2"},{"bufferView":8,"componentType":5123,"count":468,"type":"SCALAR"},{"bufferView":9,"componentType":5126,"count":5569,"type":"VEC3","min":[-0.77250576,-0.8049631,2.8862982],"max":[12.431169,11.59524,8.314529]},{"bufferView":10,"componentType":5126,"count":5569,"type":"VEC3"},{"bufferView":11,"componentType":5126,"count":5569,"type":"VEC2"},{"bufferView":12,"componentType":5123,"count":26217,"type":"SCALAR"},{"bufferView":13,"componentType":5123,"count":216,"type":"SCALAR"},{"bufferView":14,"componentType":5126,"count":124,"type":"VEC3","min":[6.156152,-1.381876,0.07393265],"max":[10.766282,13.154108,0.46430445]},{"bufferView":15,"componentType":5126,"count":124,"type":"VEC3"},{"bufferView":16,"componentType":5126,"count":124,"type":"VEC2"},{"bufferView":17,"componentType":5123,"count":630,"type":"SCALAR"},{"bufferView":18,"componentType":5126,"count":5213,"type":"VEC3","min":[0.30415297,-0.17211008,1.9329993],"max":[10.658153,10.851891,2.628598]},{"bufferView":19,"componentType":5126,"count":5213,"type":"VEC3"},{"bufferView":20,"componentType":5126,"count":5213,"type":"VEC2"},{"bufferView":21,"componentType":5123,"count":44496,"type":"SCALAR"},{"bufferView":22,"componentType":5123,"count":1728,"type":"SCALAR"},{"bufferView":23,"componentType":5126,"count":166,"type":"VEC3","min":[-0.065062046,-0.057424545,1.4989324],"max":[11.46105,10.748576,5.303433]},{"bufferView":24,"componentType":5126,"count":166,"type":"VEC3"},{"bufferView":25,"componentType":5126,"count":166,"type":"VEC2"},{"bufferView":26,"componentType":5123,"count":792,"type":"SCALAR"},{"bufferView":27,"componentType":5126,"count":488,"type":"VEC3","min":[0.83261204,0.020575523,0.14867783],"max":[3.3189,0.08057594,2.4620638]},{"bufferView":28,"componentType":5126,"count":488,"type":"VEC3"},{"bufferView":29,"componentType":5126,"count":488,"type":"VEC2"},{"bufferView":30,"componentType":5123,"count":2520,"type":"SCALAR"},{"bufferView":31,"componentType":5126,"count":556,"type":"VEC3","min":[7.2206097,0.14806557,0.16505289],"max":[10.359743,10.55562,2.7709365]},{"bufferView":32,"componentType":5126,"count":556,"type":"VEC3"},{"bufferView":33,"componentType":5126,"count":556,"type":"VEC2"},{"bufferView":34,"componentType":5123,"count":36,"type":"SCALAR"},{"bufferView":35,"componentType":5123,"count":2232,"type":"SCALAR"},{"bufferView":36,"componentType":5123,"count":1368,"type":"SCALAR"},{"bufferView":37,"componentType":5126,"count":3081,"type":"VEC3","min":[0.10261059,0.11527634,0.13711166],"max":[12.555611,10.585277,5.793015]},{"bufferView":38,"componentType":5126,"count":3081,"type":"VEC3"},{"bufferView":39,"componentType":5126,"count":3081,"type":"VEC2"},{"bufferView":40,"componentType":5123,"count":414,"type":"SCALAR"},{"bufferView":41,"componentType":5123,"count":954,"type":"SCALAR"},{"bufferView":42,"componentType":5123,"count":12852,"type":"SCALAR"},{"bufferView":43,"componentType":5126,"count":26460,"type":"VEC3","min":[-0.954093,-0.9700184,-0.042840958],"max":[12.612654,11.772394,6.050409]},{"bufferView":44,"componentType":5126,"count":26460,"type":"VEC3"},{"bufferView":45,"componentType":5126,"count":26460,"type":"VEC2"},{"bufferView":46,"componentType":5123,"count":278208,"type":"SCALAR"},{"bufferView":47,"componentType":5126,"count":762,"type":"VEC3","min":[3.712225,6.0003757,6.70868],"max":[8.970827,6.8907757,8.940178]},{"bufferView":48,"componentType":5126,"count":762,"type":"VEC3"},{"bufferView":49,"componentType":5126,"count":762,"type":"VEC2"},{"bufferView":50,"componentType":5123,"count":1512,"type":"SCALAR"},{"bufferView":51,"componentType":5123,"count":1728,"type":"SCALAR"},{"bufferView":52,"componentType":5123,"count":144,"type":"SCALAR"},{"bufferView":53,"componentType":5123,"count":1224,"type":"SCALAR"},{"bufferView":54,"componentType":5126,"count":752,"type":"VEC3","min":[11.311283,4.708917,3.3589325],"max":[12.681782,8.17103,4.4089327]},{"bufferView":55,"componentType":5126,"count":752,"type":"VEC3"},{"bufferView":56,"componentType":5126,"count":752,"type":"VEC2"},{"bufferView":57,"componentType":5123,"count":3744,"type":"SCALAR"},{"bufferView":58,"componentType":5126,"count":264,"type":"VEC3","min":[6.296131,10.650106,0.8489318],"max":[11.376432,13.110107,3.4289327]},{"bufferView":59,"componentType":5126,"count":264,"type":"VEC3"},{"bufferView":60,"componentType":5126,"count":264,"type":"VEC2"},{"bufferView":61,"componentType":5123,"count":1188,"type":"SCALAR"},{"bufferView":62,"componentType":5126,"count":64,"type":"VEC3","min":[6.676284,10.553526,-0.031067371],"max":[11.036283,13.140108,0.8889327]},{"bufferView":63,"componentType":5126,"count":64,"type":"VEC3"},{"bufferView":64,"componentType":5126,"count":64,"type":"VEC2"},{"bufferView":65,"componentType":5123,"count":180,"type":"SCALAR"},{"bufferView":66,"componentType":5123,"count":108,"type":"SCALAR"},{"bufferView":67,"componentType":5126,"count":102,"type":"VEC3","min":[0.061282158,-1.3618755,-0.05531168],"max":[12.562283,10.553527,0.27993202]},{"bufferView":68,"componentType":5126,"count":102,"type":"VEC3"},{"bufferView":69,"componentType":5126,"count":102,"type":"VEC2"},{"bufferView":70,"componentType":5123,"count":90,"type":"SCALAR"},{"bufferView":71,"componentType":5123,"count":450,"type":"SCALAR"},{"bufferView":72,"componentType":5126,"count":1202,"type":"VEC3","min":[0.001282692,0.0005760193,0.14893293],"max":[12.651283,11.571198,6.1389327]},{"bufferView":73,"componentType":5126,"count":1202,"type":"VEC3"},{"bufferView":74,"componentType":5126,"count":1202,"type":"VEC2"},{"bufferView":75,"componentType":5123,"count":3852,"type":"SCALAR"},{"bufferView":76,"componentType":5123,"count":3474,"type":"SCALAR"}],"bufferViews":[{"target":34962,"buffer":0,"byteLength":1584,"byteOffset":0},{"target":34962,"buffer":0,"byteLength":1584,"byteOffset":1584},{"target":34962,"buffer":0,"byteLength":1056,"byteOffset":3168},{"target":34963,"buffer":0,"byteLength":36,"byteOffset":4224},{"target":34963,"buffer":0,"byteLength":1152,"byteOffset":4260},{"target":34962,"buffer":0,"byteLength":768,"byteOffset":5412},{"target":34962,"buffer":0,"byteLength":768,"byteOffset":6180},{"target":34962,"buffer":0,"byteLength":512,"byteOffset":6948},{"target":34963,"buffer":0,"byteLength":936,"byteOffset":7460},{"target":34962,"buffer":0,"byteLength":66828,"byteOffset":8396},{"target":34962,"buffer":0,"byteLength":66828,"byteOffset":75224},{"target":34962,"buffer":0,"byteLength":44552,"byteOffset":142052},{"target":34963,"buffer":0,"byteLength":52434,"byteOffset":186604},{"target":34963,"buffer":0,"byteLength":432,"byteOffset":239040},{"target":34962,"buffer":0,"byteLength":1488,"byteOffset":239472},{"target":34962,"buffer":0,"byteLength":1488,"byteOffset":240960},{"target":34962,"buffer":0,"byteLength":992,"byteOffset":242448},{"target":34963,"buffer":0,"byteLength":1260,"byteOffset":243440},{"target":34962,"buffer":0,"byteLength":62556,"byteOffset":244700},{"target":34962,"buffer":0,"byteLength":62556,"byteOffset":307256},{"target":34962,"buffer":0,"byteLength":41704,"byteOffset":369812},{"target":34963,"buffer":0,"byteLength":88992,"byteOffset":411516},{"target":34963,"buffer":0,"byteLength":3456,"byteOffset":500508},{"target":34962,"buffer":0,"byteLength":1992,"byteOffset":503964},{"target":34962,"buffer":0,"byteLength":1992,"byteOffset":505956},{"target":34962,"buffer":0,"byteLength":1328,"byteOffset":507948},{"target":34963,"buffer":0,"byteLength":1584,"byteOffset":509276},{"target":34962,"buffer":0,"byteLength":5856,"byteOffset":510860},{"target":34962,"buffer":0,"byteLength":5856,"byteOffset":516716},{"target":34962,"buffer":0,"byteLength":3904,"byteOffset":522572},{"target":34963,"buffer":0,"byteLength":5040,"byteOffset":526476},{"target":34962,"buffer":0,"byteLength":6672,"byteOffset":531516},{"target":34962,"buffer":0,"byteLength":6672,"byteOffset":538188},{"target":34962,"buffer":0,"byteLength":4448,"byteOffset":544860},{"target":34963,"buffer":0,"byteLength":72,"byteOffset":549308},{"target":34963,"buffer":0,"byteLength":4464,"byteOffset":549380},{"target":34963,"buffer":0,"byteLength":2736,"byteOffset":553844},{"target":34962,"buffer":0,"byteLength":36972,"byteOffset":556580},{"target":34962,"buffer":0,"byteLength":36972,"byteOffset":593552},{"target":34962,"buffer":0,"byteLength":24648,"byteOffset":630524},{"target":34963,"buffer":0,"byteLength":828,"byteOffset":655172},{"target":34963,"buffer":0,"byteLength":1908,"byteOffset":656000},{"target":34963,"buffer":0,"byteLength":25704,"byteOffset":657908},{"target":34962,"buffer":0,"byteLength":317520,"byteOffset":683612},{"target":34962,"buffer":0,"byteLength":317520,"byteOffset":1001132},{"target":34962,"buffer":0,"byteLength":211680,"byteOffset":1318652},{"target":34963,"buffer":0,"byteLength":556416,"byteOffset":1530332},{"target":34962,"buffer":0,"byteLength":9144,"byteOffset":2086748},{"target":34962,"buffer":0,"byteLength":9144,"byteOffset":2095892},{"target":34962,"buffer":0,"byteLength":6096,"byteOffset":2105036},{"target":34963,"buffer":0,"byteLength":3024,"byteOffset":2111132},{"target":34963,"buffer":0,"byteLength":3456,"byteOffset":2114156},{"target":34963,"buffer":0,"byteLength":288,"byteOffset":2117612},{"target":34963,"buffer":0,"byteLength":2448,"byteOffset":2117900},{"target":34962,"buffer":0,"byteLength":9024,"byteOffset":2120348},{"target":34962,"buffer":0,"byteLength":9024,"byteOffset":2129372},{"target":34962,"buffer":0,"byteLength":6016,"byteOffset":2138396},{"target":34963,"buffer":0,"byteLength":7488,"byteOffset":2144412},{"target":34962,"buffer":0,"byteLength":3168,"byteOffset":2151900},{"target":34962,"buffer":0,"byteLength":3168,"byteOffset":2155068},{"target":34962,"buffer":0,"byteLength":2112,"byteOffset":2158236},{"target":34963,"buffer":0,"byteLength":2376,"byteOffset":2160348},{"target":34962,"buffer":0,"byteLength":768,"byteOffset":2162724},{"target":34962,"buffer":0,"byteLength":768,"byteOffset":2163492},{"target":34962,"buffer":0,"byteLength":512,"byteOffset":2164260},{"target":34963,"buffer":0,"byteLength":360,"byteOffset":2164772},{"target":34963,"buffer":0,"byteLength":216,"byteOffset":2165132},{"target":34962,"buffer":0,"byteLength":1224,"byteOffset":2165348},{"target":34962,"buffer":0,"byteLength":1224,"byteOffset":2166572},{"target":34962,"buffer":0,"byteLength":816,"byteOffset":2167796},{"target":34963,"buffer":0,"byteLength":180,"byteOffset":2168612},{"target":34963,"buffer":0,"byteLength":900,"byteOffset":2168792},{"target":34962,"buffer":0,"byteLength":14424,"byteOffset":2169692},{"target":34962,"buffer":0,"byteLength":14424,"byteOffset":2184116},{"target":34962,"buffer":0,"byteLength":9616,"byteOffset":2198540},{"target":34963,"buffer":0,"byteLength":7704,"byteOffset":2208156},{"target":34963,"buffer":0,"byteLength":6948,"byteOffset":2215860}],"buffers":[{"byteLength":2222808,"uri":"data:application/octet-stream;base64,"}]}